<?xml version="1.0" standalone="no"?>
<!DOCTYPE svg PUBLIC "-//W3C//DTD SVG 20010904//EN"
 "http://www.w3.org/TR/2001/REC-SVG-20010904/DTD/svg10.dtd">
<svg version="1.0" xmlns="http://www.w3.org/2000/svg"
 width="999.000000pt" height="1001.000000pt" viewBox="0 0 999.000000 1001.000000"
 preserveAspectRatio="xMidYMid meet">

<g transform="translate(0.000000,1001.000000) scale(0.100000,-0.100000)"
fill="#000000" stroke="none">
<path d="M3835 8302 c-158 -75 -303 -295 -335 -506 -33 -221 76 -370 260 -353
80 7 146 42 223 118 l67 67 0 -38 c0 -49 14 -85 35 -94 27 -10 68 43 109 143
45 107 81 151 125 151 40 0 47 -28 27 -107 -9 -34 -16 -77 -16 -96 0 -80 98
-101 184 -40 l42 30 16 -38 c12 -29 24 -40 50 -47 48 -13 86 2 140 55 47 46
47 46 56 22 34 -87 138 -84 225 6 36 37 37 37 37 13 0 -38 41 -91 80 -105 72
-25 179 14 256 94 l44 45 0 -30 c0 -39 18 -89 35 -96 8 -3 24 3 37 14 24 19
36 39 91 160 44 95 69 122 110 118 27 -2 33 -8 35 -31 2 -15 -4 -56 -12 -91
-21 -84 -20 -103 9 -131 45 -46 139 -24 202 48 l30 35 12 -37 c30 -101 117
-98 191 6 l25 35 7 -42 c9 -51 21 -67 57 -75 71 -15 202 86 240 188 17 44 -2
31 -46 -31 -47 -67 -111 -115 -145 -110 -21 3 -23 8 -22 53 1 32 13 78 33 125
33 79 31 90 -14 104 -18 5 -26 -4 -54 -62 -40 -82 -115 -188 -142 -203 -70
-37 -75 70 -11 215 25 57 25 59 7 73 -11 7 -26 12 -35 11 -19 -4 -54 -66 -75
-135 -11 -36 -34 -72 -66 -107 -57 -63 -100 -83 -124 -59 -17 16 -16 24 16
111 10 29 19 69 19 88 0 102 -92 141 -187 79 -29 -19 -85 -106 -112 -172 l-20
-48 0 39 c-1 21 6 65 14 98 14 52 24 67 80 120 95 89 180 233 199 340 9 49
-15 108 -43 108 -84 0 -255 -314 -331 -607 -32 -126 -207 -234 -281 -174 -20
16 -24 28 -23 74 2 97 94 235 160 240 27 2 29 0 27 -31 0 -18 -9 -42 -18 -52
-16 -17 -15 -19 4 -30 32 -17 71 26 71 78 0 51 -32 82 -83 82 -99 0 -192 -83
-241 -212 -23 -61 -103 -138 -145 -138 -48 0 -49 30 -6 113 l37 71 -22 18
c-21 17 -21 18 -3 18 48 0 58 62 17 103 -85 86 -273 -4 -363 -174 -42 -77 -81
-122 -127 -144 -28 -13 -38 -14 -50 -5 -19 17 -18 25 12 116 35 109 22 170
-45 195 -69 27 -150 -32 -211 -153 l-40 -80 0 44 c0 85 23 135 89 194 64 59
139 168 177 262 39 95 27 192 -24 192 -17 0 -80 -58 -112 -105 -70 -102 -171
-338 -210 -492 -31 -123 -216 -258 -326 -237 -146 27 -174 239 -65 489 34 77
127 210 172 246 77 61 163 73 175 23 7 -29 -30 -112 -79 -177 -21 -26 -37 -52
-37 -57 0 -6 11 -16 25 -22 37 -17 72 13 115 96 28 55 34 79 35 128 0 53 -3
62 -28 84 -42 36 -131 34 -212 -4z m531 -129 c-31 -89 -148 -274 -163 -259 -9
9 102 226 138 269 17 21 33 36 35 34 2 -2 -2 -22 -10 -44z m1400 -36 c-29 -67
-104 -184 -135 -211 -20 -18 -19 -15 7 50 31 75 78 158 120 214 36 48 41 20 8
-53z m-865 -267 c13 -8 19 -21 19 -46 0 -29 -13 -52 -64 -118 -83 -107 -150
-168 -179 -164 -19 3 -22 9 -21 49 0 60 42 144 106 214 28 31 63 59 81 64 18
5 33 10 35 10 2 1 12 -4 23 -9z"/>
<path d="M7198 6923 c-8 -10 -18 -25 -21 -35 -5 -14 -27 -17 -154 -20 -138 -3
-152 -5 -205 -31 -67 -33 -138 -107 -161 -169 -9 -24 -68 -223 -131 -443 -321
-1114 -333 -1156 -357 -1182 -52 -55 6 -53 -1259 -53 l-1171 0 3 -112 3 -113
1190 -3 c1318 -3 1248 -6 1300 62 25 33 62 153 265 861 233 810 272 941 292
971 27 40 77 74 125 85 21 5 87 9 146 9 l108 0 10 -29 c16 -46 42 -51 267 -51
232 0 257 6 299 69 27 40 29 80 6 128 -32 69 -49 73 -309 73 -208 0 -232 -2
-246 -17z"/>
<path d="M4620 6820 c0 -44 28 -120 61 -165 34 -46 41 -40 -86 -75 -231 -63
-469 -230 -626 -440 -61 -82 -139 -239 -174 -350 -25 -81 -55 -244 -55 -303
l0 -27 1197 2 1197 3 -3 60 c-6 129 -46 284 -110 419 -118 253 -343 473 -598
585 -76 33 -188 71 -213 71 -40 1 -41 16 -6 68 30 45 56 123 56 167 0 13 -47
15 -320 15 l-320 0 0 -30z m-10 -470 c39 -39 18 -70 -91 -130 -81 -44 -201
-163 -265 -260 -38 -58 -55 -76 -76 -78 -20 -2 -31 4 -44 22 -22 34 -10 63 66
165 87 117 186 204 302 267 74 39 82 40 108 14z m-480 -645 c9 -11 11 -34 6
-77 -9 -87 -43 -119 -90 -83 -15 12 -19 26 -17 72 2 71 21 103 60 103 16 0 34
-7 41 -15z"/>
<path d="M3742 5268 l3 -83 1180 -2 c649 -2 1188 0 1198 3 15 5 17 17 16 85
l-1 79 -1200 0 -1199 0 3 -82z"/>
<path d="M4221 4716 c-54 -19 -112 -75 -138 -133 -51 -111 -13 -240 90 -310
193 -130 440 57 376 284 -17 62 -96 143 -155 161 -51 15 -128 14 -173 -2z"/>
<path d="M5697 4719 c-90 -22 -157 -85 -183 -175 -28 -98 7 -206 88 -268 48
-36 85 -48 153 -49 111 -1 209 71 240 177 19 62 19 80 0 142 -37 124 -174 204
-298 173z"/>
<path d="M2525 3936 c-74 -18 -134 -55 -172 -104 -28 -37 -33 -52 -33 -97 0
-46 4 -56 26 -74 28 -22 91 -30 78 -10 -11 19 -5 118 10 154 16 36 45 60 90
71 27 6 28 5 24 -22 -6 -33 -134 -522 -144 -548 -5 -14 4 -16 74 -16 l79 0 31
118 c17 64 36 138 43 165 l11 47 79 0 c83 0 83 0 93 43 l6 27 -75 0 c-87 0
-86 -1 -57 105 l17 60 91 -3 c89 -4 92 -3 122 25 17 15 33 37 36 48 6 19 1 20
-187 22 -126 1 -209 -3 -242 -11z"/>
<path d="M4530 3931 c-85 -23 -163 -66 -202 -110 l-31 -36 6 33 c4 17 10 46
13 63 6 28 5 30 -17 25 -13 -3 -50 -8 -81 -11 -43 -5 -58 -10 -58 -22 0 -16
-39 -155 -46 -162 -2 -2 -10 2 -18 9 -22 17 -124 15 -169 -4 -20 -9 -62 -39
-92 -66 -40 -37 -63 -50 -85 -50 -17 0 -33 -1 -37 -2 -4 -2 -11 16 -16 39 -4
22 -19 52 -33 66 -65 65 -231 36 -307 -54 -23 -27 -45 -41 -75 -47 -48 -11
-52 -8 -67 52 -15 60 -51 81 -138 80 -115 -1 -202 -60 -256 -174 -36 -78 -37
-186 -1 -224 32 -35 118 -60 173 -51 96 16 184 94 211 186 9 29 16 58 16 65 0
14 23 24 55 24 l24 0 -16 -46 c-10 -29 -14 -66 -11 -100 6 -73 38 -107 117
-124 136 -29 261 59 301 210 13 49 23 60 59 60 20 0 22 -3 16 -27 -29 -105
-21 -174 23 -214 55 -49 157 -47 220 6 l29 24 28 -29 c34 -36 83 -47 136 -31
37 11 69 42 69 68 0 6 -15 13 -32 15 -25 2 -34 8 -36 26 -3 20 63 301 73 311
2 2 9 -8 16 -22 12 -26 47 -47 77 -47 15 0 18 9 18 53 0 67 27 122 77 158 113
82 307 77 346 -8 22 -48 25 -134 7 -223 -37 -181 -138 -296 -229 -261 -15 6
-27 13 -27 17 0 3 25 103 57 222 31 120 58 229 61 244 l4 27 -58 -6 c-106 -11
-85 32 -199 -403 -21 -80 -40 -151 -43 -157 -3 -10 16 -13 77 -13 65 0 81 3
81 15 0 19 -2 19 45 -5 51 -26 133 -26 183 -1 95 48 183 195 204 336 10 69 9
88 -6 138 -23 78 -78 138 -147 160 -68 22 -204 21 -289 -2z m-1400 -271 c8
-15 6 -24 -10 -40 -24 -24 -24 -29 -5 -57 41 -59 -62 -218 -128 -197 -12 4
-25 12 -29 18 -26 39 15 193 69 256 40 46 84 55 103 20z m478 -6 c2 -11 -4
-27 -13 -34 -19 -16 -19 -39 1 -61 15 -16 15 -22 -2 -71 -19 -59 -80 -128
-112 -128 -11 0 -28 8 -37 17 -39 39 5 214 70 278 32 33 88 32 93 -1z m482 16
c12 -8 10 -25 -14 -127 -33 -132 -60 -173 -114 -173 -44 0 -55 20 -50 93 8
138 107 252 178 207z"/>
<path d="M5838 3905 c-69 -38 -30 -125 56 -125 13 0 35 9 50 21 75 59 -19 151
-106 104z"/>
<path d="M5601 3899 c-35 -4 -65 -10 -67 -12 -2 -2 -24 -84 -49 -183 -70 -273
-66 -264 -132 -307 -53 -35 -61 -38 -122 -35 -56 3 -67 6 -77 25 -6 13 -9 36
-6 53 3 24 9 30 28 30 43 0 131 40 168 77 69 69 70 150 1 178 -109 46 -257
-23 -323 -150 -23 -43 -27 -63 -27 -138 0 -85 1 -90 28 -113 77 -66 232 -52
342 32 20 15 37 25 38 23 1 -2 10 -21 19 -41 14 -29 26 -40 58 -49 51 -15 130
0 183 37 l37 25 26 -30 c15 -18 39 -33 60 -37 45 -8 119 11 168 43 31 20 40
22 47 11 5 -7 9 -16 9 -20 0 -3 20 -14 45 -23 53 -21 127 -15 185 15 95 49
175 187 187 324 5 66 4 75 -16 95 -42 42 -115 19 -109 -34 3 -26 8 -30 36 -33
39 -4 40 -15 12 -97 -42 -122 -104 -195 -165 -195 -19 0 -35 6 -38 14 -3 7 12
83 34 167 21 85 39 160 39 167 0 8 -21 12 -75 12 l-74 0 -10 -37 c-6 -21 -22
-87 -37 -148 -23 -91 -33 -116 -60 -142 -22 -23 -41 -33 -62 -33 -54 0 -55 12
-9 193 l43 167 -78 0 -77 0 -10 -37 c-5 -21 -22 -85 -36 -143 -15 -57 -34
-117 -42 -131 -27 -45 -97 -65 -122 -35 -11 13 20 148 100 441 10 38 19 73 19
77 0 9 1 9 -89 -3z m-289 -226 c7 -31 -11 -76 -44 -110 -30 -31 -93 -61 -105
-49 -11 11 32 108 63 141 35 39 80 48 86 18z"/>
<path d="M6655 3731 c-47 -12 -87 -36 -126 -78 -53 -57 -69 -87 -84 -161 -24
-117 5 -178 98 -203 76 -20 195 7 264 61 34 27 45 25 33 -6 -20 -52 -16 -55
67 -52 l77 3 40 162 c23 89 48 169 56 177 8 9 29 18 46 22 27 5 32 2 44 -25
16 -40 59 -43 95 -6 32 31 31 50 -1 82 -22 22 -32 25 -69 21 -24 -3 -57 -15
-74 -27 l-31 -22 0 25 c0 26 -1 26 -74 26 l-74 0 -11 -32 c-5 -18 -22 -80 -36
-138 -29 -116 -49 -146 -121 -181 -42 -20 -131 -28 -154 -14 -18 11 -32 57
-25 82 4 16 13 23 28 23 45 0 116 32 161 71 52 46 73 100 56 144 -17 46 -100
66 -185 46z m103 -83 c2 -29 -3 -43 -29 -73 -49 -56 -119 -85 -119 -49 0 27
53 125 79 145 38 30 65 22 69 -23z"/>
<path d="M7345 3718 c-24 -73 -75 -297 -75 -333 0 -56 29 -90 86 -101 36 -7
63 -1 138 31 13 6 17 4 14 -5 -2 -7 -35 -23 -73 -36 -88 -29 -117 -60 -113
-117 2 -34 9 -45 37 -64 73 -49 212 -18 255 56 15 27 156 543 156 574 0 4 -35
7 -77 5 l-77 -3 -31 -120 c-18 -66 -35 -132 -38 -147 -11 -43 -55 -88 -87 -88
-16 0 -30 7 -34 16 -3 8 12 87 34 174 22 88 40 162 40 165 0 3 -34 5 -75 5
-52 0 -77 -4 -80 -12z m145 -473 c0 -32 -30 -85 -54 -96 -54 -25 -79 44 -28
79 48 34 82 41 82 17z"/>
<path d="M2500 3130 c0 -78 17 -78 22 0 2 43 -1 60 -9 60 -9 0 -13 -19 -13
-60z"/>
<path d="M2922 3130 c-29 -33 -47 -60 -40 -60 7 0 28 21 47 45 29 40 61 59 61
37 0 -14 67 -85 78 -81 5 2 -13 30 -41 62 l-52 58 -53 -61z"/>
<path d="M3850 3130 c0 -33 4 -60 10 -60 6 0 10 27 10 60 0 33 -4 60 -10 60
-6 0 -10 -27 -10 -60z"/>
<path d="M4250 3130 c0 -33 4 -60 10 -60 6 0 10 27 10 60 0 33 -4 60 -10 60
-6 0 -10 -27 -10 -60z"/>
<path d="M4758 3184 c-5 -4 -8 -27 -8 -51 l0 -43 -90 45 c-49 25 -93 45 -97
45 -5 0 -9 -25 -11 -55 -2 -33 1 -55 8 -55 5 0 10 20 10 45 0 25 2 45 5 45 3
0 46 -21 96 -46 50 -25 93 -43 96 -41 2 3 3 30 1 62 -2 31 -6 53 -10 49z"/>
<path d="M5050 3130 c0 -42 4 -60 13 -60 9 0 12 18 12 60 0 41 -4 60 -12 60
-9 0 -13 -19 -13 -60z"/>
<path d="M5718 3130 c4 -62 18 -81 24 -32 5 43 -3 92 -16 92 -7 0 -10 -20 -8
-60z"/>
<path d="M5889 3158 c-5 -44 0 -88 11 -88 4 0 10 27 12 60 2 40 -1 60 -8 60
-7 0 -13 -15 -15 -32z"/>
<path d="M6200 3188 c-1 -2 -2 -29 -4 -60 -2 -43 1 -58 11 -58 9 0 13 17 13
60 0 33 -4 60 -10 60 -5 0 -10 -1 -10 -2z"/>
<path d="M6597 3183 c-4 -3 -7 -30 -7 -60 0 -40 4 -53 15 -53 12 0 15 13 15
60 0 55 -6 70 -23 53z"/>
<path d="M7048 3130 c2 -33 7 -60 12 -60 5 0 10 27 12 60 2 48 0 60 -12 60
-12 0 -14 -12 -12 -60z"/>
<path d="M7138 3183 c6 -2 18 -2 25 0 6 3 1 5 -13 5 -14 0 -19 -2 -12 -5z"/>
<path d="M3362 3164 c-32 -22 -29 -60 8 -79 41 -21 47 -19 16 6 -34 26 -33 54
2 73 15 9 20 15 12 16 -9 0 -26 -7 -38 -16z"/>
<path d="M3530 3176 c0 -2 7 -7 16 -10 8 -3 12 -2 9 4 -6 10 -25 14 -25 6z"/>
<path d="M6699 3166 c13 -16 -1 -31 -34 -38 -16 -3 -10 -9 28 -32 26 -16 50
-26 53 -23 3 3 -9 13 -26 23 l-30 19 21 16 c25 18 20 49 -7 49 -13 0 -14 -3
-5 -14z"/>
<path d="M3550 3100 c0 -11 5 -20 10 -20 6 0 10 9 10 20 0 11 -4 20 -10 20 -5
0 -10 -9 -10 -20z"/>
<path d="M2498 3 c1377 -2 3627 -2 5000 0 1373 1 247 2 -2503 2 -2750 0 -3874
-1 -2497 -2z"/>
</g>
</svg>
