<?xml version="1.0" standalone="no"?>
<!DOCTYPE svg PUBLIC "-//W3C//DTD SVG 20010904//EN"
 "http://www.w3.org/TR/2001/REC-SVG-20010904/DTD/svg10.dtd">
<svg version="1.0" xmlns="http://www.w3.org/2000/svg"
 width="549.000000pt" height="306.000000pt" viewBox="0 0 549.000000 306.000000"
 preserveAspectRatio="xMidYMid meet">

<g transform="translate(0.000000,306.000000) scale(0.100000,-0.100000)"
fill="#000000" stroke="none">
<path d="M1220 1530 l0 -1530 1525 0 1525 0 0 1530 0 1530 -1525 0 -1525 0 0
-1530z m1224 1014 c21 -8 21 -53 0 -82 -24 -34 -36 -16 -14 21 25 41 25 47 -3
47 -63 0 -131 -156 -97 -221 13 -23 41 -24 78 -5 30 15 44 37 67 106 34 98 95
168 95 108 0 -24 -44 -103 -64 -115 -7 -4 -16 -21 -20 -38 l-7 -30 20 29 c43
63 87 54 76 -16 -10 -56 15 -50 53 13 28 47 91 76 107 49 3 -5 1 -28 -5 -51
-6 -22 -9 -43 -7 -45 11 -11 37 11 52 42 18 39 58 69 80 60 17 -6 20 -32 5
-41 -6 -4 -7 1 -3 10 4 13 1 16 -13 13 -26 -4 -57 -67 -42 -85 28 -34 79 9
103 87 21 70 62 140 80 140 32 0 13 -69 -33 -121 -16 -19 -31 -44 -34 -56 -8
-31 -1 -29 16 6 32 60 82 46 71 -21 -4 -21 -3 -38 2 -38 17 0 37 20 52 51 9
18 22 35 29 37 11 3 12 0 3 -16 -15 -29 -14 -75 2 -70 6 3 21 21 32 41 11 20
26 37 33 37 9 0 10 -5 2 -19 -14 -27 -13 -61 3 -61 8 0 7 -3 -3 -10 -10 -6
-19 -5 -29 5 -12 12 -17 11 -37 -1 -20 -14 -23 -14 -32 2 -8 15 -13 16 -25 5
-9 -7 -26 -11 -39 -9 -20 3 -23 8 -20 41 5 55 -23 50 -48 -9 -19 -42 -40 -52
-40 -18 0 12 -5 11 -26 -5 -31 -25 -66 -27 -84 -6 -10 12 -15 12 -36 -2 -23
-14 -26 -14 -43 1 -16 15 -19 15 -31 1 -14 -17 -50 -21 -50 -5 0 5 -17 8 -37
7 l-38 -2 3 38 c4 53 -22 49 -50 -8 -22 -45 -38 -58 -38 -30 0 20 -7 19 -37
-5 -36 -28 -97 -27 -117 2 -30 42 -13 141 32 192 17 19 72 56 84 56 3 0 13 -3
22 -6z m1144 -452 c6 -41 -14 -52 -94 -52 -40 0 -76 5 -79 10 -9 14 -87 12
-107 -3 -10 -8 -36 -79 -63 -173 -98 -336 -118 -399 -129 -406 -6 -4 -179 -8
-383 -8 l-373 0 0 35 0 35 372 2 373 3 75 258 c86 297 92 307 180 307 27 0 52
5 55 10 4 7 39 10 88 8 77 -3 82 -4 85 -26z m-758 3 c0 -3 -7 -21 -14 -40 -12
-28 -12 -35 -2 -35 28 0 135 -62 173 -101 52 -52 95 -137 101 -200 l5 -49
-367 0 c-419 0 -382 -11 -346 101 11 35 33 82 48 104 36 52 115 111 175 131
38 13 47 20 41 33 -3 9 -9 26 -11 39 -5 22 -4 22 96 22 55 0 101 -2 101 -5z
m261 -465 c6 -44 26 -41 -364 -43 l-367 -2 0 28 0 27 365 0 c236 0 365 -4 366
-10z m-498 -212 c43 -50 -3 -136 -66 -124 -56 11 -83 67 -56 117 22 42 89 46
122 7z m440 4 c28 -24 23 -86 -9 -111 -35 -28 -69 -26 -99 4 -41 40 -32 99 19
121 34 14 61 10 89 -14z m-915 -224 c-3 -7 -20 -15 -39 -18 -26 -4 -35 -10
-37 -27 -3 -18 2 -23 17 -23 12 0 21 -4 21 -10 0 -5 -11 -10 -25 -10 -21 0
-27 -7 -40 -55 -12 -40 -21 -55 -34 -55 -10 0 -20 2 -23 5 -3 3 4 42 15 86 11
44 17 82 14 85 -12 12 -27 -8 -27 -37 0 -31 -11 -37 -28 -16 -15 18 6 58 38
74 34 17 153 17 148 1z m597 -13 c16 -15 25 -35 25 -56 0 -35 -24 -92 -47
-111 -19 -16 -133 -21 -133 -5 0 6 9 46 21 89 19 70 24 78 45 78 13 0 24 -1
24 -2 0 -2 -9 -36 -19 -75 -18 -69 -18 -73 -2 -73 31 0 54 37 59 94 4 47 2 55
-17 65 -42 23 -111 -12 -111 -56 0 -25 -10 -29 -26 -13 -7 7 -14 -4 -21 -36
-9 -37 -8 -47 3 -51 11 -4 12 -9 3 -19 -14 -17 -41 -18 -56 -3 -8 8 -17 8 -32
-1 -43 -22 -81 13 -66 60 10 31 -9 23 -22 -9 -15 -42 -57 -67 -91 -55 -22 8
-28 17 -32 49 l-5 40 -20 -39 c-23 -46 -63 -65 -101 -47 -55 25 -6 131 61 131
22 0 37 -7 47 -22 l15 -22 28 22 c37 29 95 30 102 2 3 -11 9 -20 13 -20 4 0
19 9 33 20 14 11 39 20 55 20 23 0 31 5 36 25 5 18 13 25 31 25 14 0 25 -4 25
-9 0 -5 17 0 37 10 53 27 108 25 138 -6z m224 -65 c-23 -88 -23 -90 -4 -90 18
0 30 23 39 73 6 31 11 37 33 37 22 0 24 -3 19 -26 -20 -77 -20 -86 0 -82 13 2
23 19 33 56 12 45 17 52 38 52 18 0 23 -4 19 -17 -14 -47 -18 -93 -8 -93 32 0
66 75 41 91 -11 6 -11 11 -1 21 10 10 15 9 27 -3 21 -21 2 -81 -36 -113 -32
-27 -58 -33 -75 -16 -7 7 -21 7 -42 -1 -24 -8 -36 -8 -46 0 -9 8 -22 8 -45 0
-27 -9 -36 -9 -48 4 -13 13 -20 13 -49 1 -43 -18 -59 -18 -79 3 -21 21 -13 68
17 100 26 28 85 32 95 6 7 -18 -38 -63 -63 -63 -8 0 -14 -7 -14 -15 0 -21 54
-20 71 1 8 9 21 44 29 77 13 51 20 62 40 68 14 3 26 5 27 5 1 -1 -7 -35 -18
-76z m99 59 c4 -19 -19 -31 -38 -19 -18 11 -4 42 17 38 10 -2 19 -10 21 -19z
m267 -49 c12 -20 -7 -49 -41 -62 -18 -6 -34 -16 -34 -20 0 -15 32 -21 58 -12
20 7 29 20 37 54 l11 45 54 0 c34 0 55 -5 58 -12 5 -18 -28 -29 -38 -13 -7 11
-11 11 -24 1 -9 -8 -16 -21 -16 -31 0 -37 -22 -80 -41 -80 -10 0 -19 7 -19 15
0 14 -3 14 -30 0 -38 -20 -56 -19 -79 4 -16 16 -18 26 -11 52 14 47 38 69 76
69 18 0 36 -5 39 -10z m201 -12 c-15 -52 -18 -88 -8 -88 15 0 28 26 36 73 6
31 11 37 31 37 30 0 30 -4 4 -99 -25 -90 -33 -101 -69 -101 -36 0 -57 24 -40
45 10 12 9 16 -4 21 -19 7 -20 29 -5 90 10 37 15 44 36 44 22 0 24 -3 19 -22z
m-1513 -158 c-3 -11 -7 -20 -9 -20 -2 0 -4 9 -4 20 0 11 4 20 9 20 5 0 7 -9 4
-20z m687 0 c0 -11 -4 -20 -9 -20 -5 0 -7 9 -4 20 3 11 7 20 9 20 2 0 4 -9 4
-20z m557 -12 c-3 -7 -5 -2 -5 12 0 14 2 19 5 13 2 -7 2 -19 0 -25z m146 12
c-3 -12 -8 -19 -11 -16 -5 6 5 36 12 36 2 0 2 -9 -1 -20z m-1233 -5 c7 -9 8
-15 2 -15 -5 0 -12 7 -16 15 -3 8 -4 15 -2 15 2 0 9 -7 16 -15z m247 -7 c-3
-8 -6 -5 -6 6 -1 11 2 17 5 13 3 -3 4 -12 1 -19z m227 7 c-4 -8 -8 -15 -10
-15 -2 0 -4 7 -4 15 0 8 4 15 10 15 5 0 7 -7 4 -15z m143 -7 c-3 -8 -6 -5 -6
6 -1 11 2 17 5 13 3 -3 4 -12 1 -19z m260 0 c-3 -8 -6 -5 -6 6 -1 11 2 17 5
13 3 -3 4 -12 1 -19z m90 0 c-3 -8 -6 -5 -6 6 -1 11 2 17 5 13 3 -3 4 -12 1
-19z m160 7 c0 -17 -13 -20 -21 -6 -4 5 0 12 6 14 7 3 13 6 14 6 0 1 1 -6 1
-14z"/>
<path d="M2542 2498 c-18 -24 -44 -80 -33 -73 6 3 20 24 31 46 20 39 21 50 2
27z"/>
<path d="M2973 2498 c-6 -7 -19 -29 -28 -48 -17 -32 -17 -34 -1 -21 19 16 50
71 43 77 -2 3 -9 -1 -14 -8z"/>
<path d="M2678 2393 c-36 -42 -48 -83 -24 -83 18 0 66 61 66 83 0 22 -23 22
-42 0z"/>
<path d="M2534 1886 c-52 -52 -68 -86 -41 -86 6 1 24 19 40 41 15 22 43 49 62
60 39 24 45 39 14 39 -11 0 -44 -24 -75 -54z"/>
<path d="M2454 1735 c-8 -20 3 -48 16 -40 13 8 13 55 0 55 -6 0 -13 -7 -16
-15z"/>
<path d="M2141 1104 c-24 -31 -28 -74 -7 -74 18 0 26 13 36 56 10 44 -3 51
-29 18z"/>
<path d="M2282 1100 c-17 -28 -16 -70 3 -70 19 0 34 29 32 63 -2 32 -17 35
-35 7z"/>
<path d="M2432 1107 c-18 -21 -25 -64 -12 -72 16 -10 37 14 45 53 5 24 3 32
-8 32 -8 0 -19 -6 -25 -13z"/>
<path d="M2810 1111 c-17 -33 -12 -46 10 -26 21 19 27 45 10 45 -5 0 -14 -9
-20 -19z"/>
<path d="M3256 1112 c-23 -27 -18 -48 8 -29 10 7 17 21 15 31 -4 17 -5 17 -23
-2z"/>
<path d="M3485 986 c-11 -8 -14 -15 -8 -19 6 -4 16 0 23 8 17 21 8 28 -15 11z"/>
</g>
</svg>
